<svg id="Layer_1" data-name="Layer 1" xmlns="http://www.w3.org/2000/svg" xmlns:xlink="http://www.w3.org/1999/xlink" viewBox="0 0 512 512"><defs><style>.cls-1{fill:#fff;}.cls-2{mask:url(#mask);}.cls-3{fill:#231f20;}.cls-4{fill:url(#linear-gradient);}</style><mask id="mask" x="42.76" y="197.79" width="429.88" height="116.41" maskUnits="userSpaceOnUse"><g id="mask0_577_684" data-name="mask0 577 684"><path class="cls-1" d="M472.64,197.79H42.76V314.21H472.64Z"/></g></mask><linearGradient id="linear-gradient" x1="113.48" y1="227.32" x2="79.43" y2="267.27" gradientTransform="matrix(1, 0, 0, -1, 0, 514)" gradientUnits="userSpaceOnUse"><stop offset="0" stop-color="#fff"/><stop offset="1" stop-color="#265df5"/></linearGradient></defs><title>naukri svg logo_logoshape</title><g class="cls-2"><path class="cls-3" d="M223.37,230.34a20.39,20.39,0,0,0-8.74,1.84,17.56,17.56,0,0,0-6.54,5.09v-6.21H195.27v49.87h12.82V253.38q0-5.94,3.06-9.13a11.07,11.07,0,0,1,8.38-3.2,10.75,10.75,0,0,1,8.23,3.2q3,3.19,3,9.13v27.55H243.6V251.67q0-10.08-5.58-15.71T223.37,230.34Z"/><path class="cls-3" d="M290.69,238.17a20,20,0,0,0-6.81-5.67,21,21,0,0,0-9.93-2.26,22.05,22.05,0,0,0-20.1,12.16,28.52,28.52,0,0,0-3.06,13.4,29,29,0,0,0,3.06,13.55,22.91,22.91,0,0,0,8.33,9.14,21.92,21.92,0,0,0,11.68,3.24,21.1,21.1,0,0,0,10-2.3,18.91,18.91,0,0,0,6.81-5.8v7.29H303.6V231.05H290.69Zm-1.83,25.7a12.84,12.84,0,0,1-4.94,5,13.36,13.36,0,0,1-6.68,1.75,12.66,12.66,0,0,1-6.55-1.8,13.43,13.43,0,0,1-4.95-5.17,16.06,16.06,0,0,1-1.87-7.89,15.55,15.55,0,0,1,1.87-7.78,13.06,13.06,0,0,1,3.38-3.91,13.28,13.28,0,0,1,4.65-2.32,13.45,13.45,0,0,1,5.21-.37,13.31,13.31,0,0,1,4.94,1.65,12.82,12.82,0,0,1,4.94,5,16,16,0,0,1,1.83,7.88A16.14,16.14,0,0,1,288.86,263.87Z"/><path class="cls-3" d="M347.15,258.53q0,6-3,9.14a10.92,10.92,0,0,1-8.33,3.2,10.79,10.79,0,0,1-8.24-3.2q-3-3.19-3-9.14V231.06H311.72v29.28a23.7,23.7,0,0,0,2.61,11.47,17.62,17.62,0,0,0,7.19,7.3A21.85,21.85,0,0,0,332,281.58a20.33,20.33,0,0,0,8.66-1.84,17,17,0,0,0,6.45-5.09v6.28h12.91V231.07H347.15Z"/><path class="cls-3" d="M414.68,231.09H398l-17,21.16v-37.9H368.18V281H381V259.72L398.2,281h16.66l-22.52-24.85Z"/><path class="cls-3" d="M433.61,238.83v-7.77H420.78V281H433.6V256.1q0-6.93,3.06-9.72c2-1.86,5.08-2.79,9.11-2.8h3.41V230.35a17.86,17.86,0,0,0-8.95,2.17A17.45,17.45,0,0,0,433.61,238.83Z"/><path class="cls-3" d="M468,231.06H455.16V281H468Z"/><path class="cls-3" d="M461.57,225.11a7.54,7.54,0,1,0-7.66-7.54A7.61,7.61,0,0,0,461.57,225.11Z"/><path class="cls-3" d="M102,314.21c32.69,0,59.18-26.06,59.18-58.21S134.64,197.79,102,197.79,42.76,223.85,42.76,256,69.26,314.21,102,314.21Z"/><path class="cls-4" d="M119.75,277.56l-.14,5.9-.38,17v.65C90,276.24,85,270.17,84.11,268.32l0-.06a2.43,2.43,0,0,1-.07-1.07,2.59,2.59,0,0,1,.09-.4,2.12,2.12,0,0,1,.09-.31,8.1,8.1,0,0,1,1.33-2.25,14.91,14.91,0,0,1,1.31-1.45,30.08,30.08,0,0,1,3.23-2.71c.56-.41,1.15-.83,1.78-1.25,1.21-.81,2.52-1.63,3.87-2.42C106.23,266.05,119.58,277.41,119.75,277.56Z"/><path class="cls-1" d="M120.13,221.6l-.13,5.93-.07,2.93-.13,5.89-.07,3-.13,5.89a189.7,189.7,0,0,0-23.85,11.19c-1.35.8-2.65,1.61-3.87,2.42-.62.42-1.22.84-1.78,1.26a28.79,28.79,0,0,0-3.23,2.71,13.72,13.72,0,0,0-1.31,1.44A6.44,6.44,0,0,0,84,267.6l.11-4.92v0l0-.76v-.28l.09-3.1.17-6.15.08-3,.18-6.1C86.75,234.72,116.64,223,120.13,221.6Z"/><path class="cls-1" d="M92.58,228.13a8.64,8.64,0,1,0-8.78-8.64A8.71,8.71,0,0,0,92.58,228.13Z"/></g></svg>